<!DOCTYPE svg PUBLIC "-//W3C//DTD SVG 20010904//EN" "http://www.w3.org/TR/2001/REC-SVG-20010904/DTD/svg10.dtd">
<svg version="1.0" xmlns="http://www.w3.org/2000/svg" width="39px" height="54px" viewBox="0 0 390 540" preserveAspectRatio="xMidYMid meet">
<g id="layer101" fill="#107ee9" stroke="none">
 <path d="M100 500 l0 -40 -50 0 c-43 0 -50 -3 -50 -19 0 -35 12 -51 36 -51 24 0 24 0 24 -120 l0 -120 -30 -6 c-25 -5 -30 -11 -30 -35 0 -28 2 -29 50 -29 l50 0 0 -40 c0 -38 2 -40 30 -40 28 0 30 2 30 40 0 29 4 40 15 40 11 0 15 -11 15 -41 0 -38 1 -40 28 -37 24 3 27 7 30 45 3 35 7 43 23 43 28 0 75 26 83 45 10 27 7 90 -5 102 -7 7 -3 18 16 38 24 24 27 32 22 78 -6 62 -34 91 -101 101 -46 7 -46 7 -46 47 0 37 -2 39 -30 39 -28 0 -30 -2 -30 -40 0 -22 -4 -40 -10 -40 -5 0 -10 18 -10 40 0 38 -2 40 -30 40 -28 0 -30 -2 -30 -40z m155 -122 c30 -13 34 -52 7 -67 -9 -5 -35 -11 -57 -13 l-40 -3 -3 48 -3 47 35 0 c19 0 47 -5 61 -12z m-7 -161 c34 -27 1 -67 -57 -67 -30 0 -31 1 -31 45 l0 46 38 -7 c20 -4 43 -11 50 -17z"/>
 </g>

</svg>